<?xml version="1.0" encoding="utf-8"?>
<!-- Generator: Adobe Illustrator 16.0.4, SVG Export Plug-In . SVG Version: 6.00 Build 0)  -->
<!DOCTYPE svg PUBLIC "-//W3C//DTD SVG 1.1//EN" "http://www.w3.org/Graphics/SVG/1.1/DTD/svg11.dtd">
<svg version="1.1" id="Layer_1" xmlns="http://www.w3.org/2000/svg" xmlns:xlink="http://www.w3.org/1999/xlink" x="0px" y="0px"
	 width="17px" height="17px" viewBox="0 0 17 17" enable-background="new 0 0 17 17" xml:space="preserve">
<g>
	<path fill="#E1E1E1" d="M12.223,1.026l-1.93-0.003c-2.171,0-3.573,1.439-3.573,3.666v1.689H4.778c-0.168,0-0.304,0.137-0.304,0.304
		v2.449c0,0.166,0.136,0.303,0.304,0.303H6.72v6.18c0,0.168,0.136,0.303,0.303,0.303h2.535c0.168,0,0.303-0.135,0.303-0.303v-6.18
		h2.271c0.168,0,0.304-0.137,0.304-0.303l0.002-2.449c0-0.08-0.034-0.158-0.091-0.215c-0.057-0.057-0.134-0.089-0.215-0.089H9.86
		V4.945c0-0.689,0.164-1.039,1.062-1.039l1.301,0c0.168,0,0.304-0.135,0.304-0.303V1.33C12.526,1.162,12.391,1.026,12.223,1.026z"/>
</g>
</svg>
