<?xml version="1.0" encoding="utf-8"?>
<!-- Generator: Adobe Illustrator 16.0.4, SVG Export Plug-In . SVG Version: 6.00 Build 0)  -->
<!DOCTYPE svg PUBLIC "-//W3C//DTD SVG 1.1//EN" "http://www.w3.org/Graphics/SVG/1.1/DTD/svg11.dtd">
<svg version="1.1" id="Layer_1" xmlns="http://www.w3.org/2000/svg" xmlns:xlink="http://www.w3.org/1999/xlink" x="0px" y="0px"
	 width="17px" height="17px" viewBox="0 0 17 17" enable-background="new 0 0 17 17" xml:space="preserve">
<g>
	<path id="Layer1" fill="#E1E1E1" d="M17,2.927c-0.482,0.705-1.064,1.305-1.748,1.801c0.008,0.101,0.012,0.251,0.012,0.453
		c0,0.935-0.137,1.868-0.41,2.799c-0.273,0.932-0.688,1.825-1.246,2.681c-0.557,0.856-1.221,1.612-1.99,2.271
		s-1.697,1.184-2.783,1.575c-1.086,0.392-2.248,0.588-3.484,0.588c-1.949,0-3.732-0.521-5.35-1.564
		c0.251,0.028,0.532,0.044,0.841,0.044c1.618,0,3.06-0.497,4.326-1.489c-0.755-0.015-1.431-0.246-2.028-0.696
		c-0.597-0.449-1.007-1.022-1.23-1.72c0.237,0.036,0.457,0.054,0.658,0.054c0.309,0,0.615-0.039,0.917-0.119
		C2.679,9.438,2.012,9.037,1.483,8.401C0.955,7.765,0.69,7.026,0.69,6.185V6.142c0.489,0.273,1.014,0.42,1.575,0.442
		c-0.475-0.316-0.852-0.73-1.132-1.241C0.852,4.833,0.712,4.279,0.712,3.682c0-0.633,0.158-1.219,0.475-1.758
		c0.87,1.071,1.929,1.929,3.177,2.573S6.947,5.498,8.371,5.57C8.313,5.296,8.284,5.03,8.284,4.771c0-0.963,0.34-1.785,1.02-2.465
		c0.68-0.679,1.501-1.019,2.465-1.019c1.007,0,1.854,0.367,2.546,1.1c0.783-0.151,1.521-0.432,2.211-0.841
		c-0.266,0.827-0.777,1.467-1.531,1.92C15.662,3.395,16.331,3.215,17,2.927z"/>
</g>
</svg>
